<mxfile host="app.diagrams.net" modified="2024-07-06T14:50:19.331Z" agent="Mozilla/5.0 (Windows NT 10.0; Win64; x64) AppleWebKit/537.36 (KHTML, like Gecko) Chrome/126.0.0.0 Safari/537.36" version="24.6.4" etag="MJ13ThtW6GDrH-LTg3OD" type="github">
  <diagram name="PÃ¡gina-1" id="JPMCSYj6mkCE7UdUO_KZ">
    <mxGraphModel>
      <root>
        <mxCell id="0" />
        <mxCell id="1" parent="0" />
      </root>
    </mxGraphModel>
  </diagram>
</mxfile>
